# xmcd CD database file
#
# Track frame offsets:
#	150
#	29625
#	43785
#	57015
#	70325
#	84130
#	112825
#	141865
#	159147
#	171487
#	186457
#	199747
#
# Disc length: 2897 seconds
#
# Revision: 0
# Processed by: cddbd v1.5.1PL2 Copyright (c) Steve Scherf et al.
# Submitted via: CDex 1.51
#
DISCID=a20b4f0c
DTITLE=Various Artist - Piano
DYEAR=2004
DGENRE=Jazz
TTITLE0=Hank Jones - Round Midnight
TTITLE1=Erroll Garner - September Song
TTITLE2=Lester Young - Indiana
TTITLE3=George Shearing - Have You Met Miss Jones?
TTITLE4=Dexter Gordon - Long Tall Dexter
TTITLE5=Cannonball Adderley - Willow Weep For Me
TTITLE6=Eliane Elias - Falling In Love With Love
TTITLE7=Marian McPartland - The Lady Is A Tramp
TTITLE8=Billy Taylor - Night And Day
TTITLE9=Lennie Tristano - Supersonic
TTITLE10=Modern Jazz Quartet - D&E
TTITLE11=Kenny Barron - A Flower
EXTD=YEAR: 2004
EXTT0=
EXTT1=
EXTT2=
EXTT3=
EXTT4=
EXTT5=
EXTT6=
EXTT7=
EXTT8=
EXTT9=
EXTT10=
EXTT11=
PLAYORDER=
